<svg width="0" height="0" class="hidden">
  <symbol version="1.1" id="hint-svgrepo-com" xmlns="http://www.w3.org/2000/svg" xmlns:xlink="http://www.w3.org/1999/xlink" enable-background="new 0 0 40 40" xml:space="preserve" viewBox="0 0 40 40">
    <g>
      <g>
        <g>
          <g>
            <path d="M20,23.5c-0.3,0-0.5-0.2-0.5-0.5v-3c0-0.3,0.2-0.5,0.5-0.5s0.5,0.2,0.5,0.5v3
					C20.5,23.3,20.3,23.5,20,23.5z"></path>
          </g>
          <g>
            <path d="M20,17.5c-0.1,0-0.3-0.1-0.4-0.1c-0.1-0.1-0.1-0.2-0.1-0.4c0-0.1,0-0.3,0.1-0.4c0.2-0.2,0.5-0.2,0.7,0
					c0.1,0.1,0.2,0.2,0.2,0.4c0,0.1-0.1,0.3-0.1,0.3C20.3,17.4,20.1,17.5,20,17.5z"></path>
          </g>
        </g>
        <g>
          <path d="M25.3,27.5H14.8c-1.2,0-2.3-1-2.3-2.3V14.8c0-1.2,1-2.3,2.3-2.3h10.5c1.2,0,2.3,1,2.3,2.3v10.5
				C27.5,26.5,26.5,27.5,25.3,27.5z M14.8,13.5c-0.7,0-1.3,0.6-1.3,1.3v10.5c0,0.7,0.6,1.3,1.3,1.3h10.5c0.7,0,1.3-0.6,1.3-1.3V14.8
				c0-0.7-0.6-1.3-1.3-1.3H14.8z"></path>
        </g>
      </g>
    </g>
  </symbol>
</svg>